<?xml version="1.0" encoding="UTF-8" standalone="no"?>
<svg
   xmlns:dc="http://purl.org/dc/elements/1.1/"
   xmlns:cc="http://creativecommons.org/ns#"
   xmlns:rdf="http://www.w3.org/1999/02/22-rdf-syntax-ns#"
   xmlns:svg="http://www.w3.org/2000/svg"
   xmlns="http://www.w3.org/2000/svg"
   xmlns:sodipodi="http://sodipodi.sourceforge.net/DTD/sodipodi-0.dtd"
   xmlns:inkscape="http://www.inkscape.org/namespaces/inkscape"
   version="1.1"
   x="0px"
   y="0px"
   viewBox="0 0 62.95295 90.410004"
   enable-background="new 0 0 84.863 90"
   xml:space="preserve"
   id="svg36"
   sodipodi:docname="rock.svg"
   width="62.95295"
   height="90.410004"
   inkscape:version="0.92.2 (5c3e80d, 2017-08-06)"><metadata
     id="metadata42"><rdf:RDF><cc:Work
         rdf:about=""><dc:format>image/svg+xml</dc:format><dc:type
           rdf:resource="http://purl.org/dc/dcmitype/StillImage" /><dc:title></dc:title></cc:Work></rdf:RDF></metadata><defs
     id="defs40" /><sodipodi:namedview
     pagecolor="#ffffff"
     bordercolor="#666666"
     borderopacity="1"
     objecttolerance="10"
     gridtolerance="10"
     guidetolerance="10"
     inkscape:pageopacity="0"
     inkscape:pageshadow="2"
     inkscape:window-width="1920"
     inkscape:window-height="1017"
     id="namedview38"
     showgrid="false"
     fit-margin-top="0"
     fit-margin-left="0"
     fit-margin-right="0"
     fit-margin-bottom="0.41"
     inkscape:zoom="2.0977778"
     inkscape:cx="33.22445"
     inkscape:cy="34.159999"
     inkscape:window-x="1244"
     inkscape:window-y="1077"
     inkscape:window-maximized="1"
     inkscape:current-layer="svg36" /><path
     d="m 62.819951,35.937999 c -0.002,-3.866 -3.133,-6.998 -6.996,-6.998 -1.447,0.001 -2.779,0.454 -3.894,1.205 -0.452,-3.426 -3.377,-6.071 -6.928,-6.073 -1.529,10e-4 -2.938,0.496 -4.09,1.328 -0.822,-2.948 -3.521,-5.113 -6.731,-5.113 -3.34,0.002 -6.129,2.34 -6.825,5.477 -0.06,0.359 -0.03,0.281 -0.044,0.442 -0.011,0.372 -0.019,1.197 -0.023,2.34 -1.121,-0.765 -2.467,-1.226 -3.928,-1.227 -3.342,0.004 -6.129,2.343 -6.824,5.476 l -0.034,0.313 v 4.294 c -0.894,-1.272 -2.47,-2.297 -4.443,-2.271 -1.185,0.003 -2.4740001,0.322 -3.9070001,0.974 -0.479,0.22 -0.802,0.678 -0.844,1.203 0,0 -0.002,0.052 -0.026,0.226 -0.171,1.213 -1.239,7.074 -6.97500001,14.419 -0.226,0.288 -0.333,0.648 -0.303,1.012 0.008,0.063 0.746,8.993 3.72200001,18.049 1.494,4.532 3.538,9.105 6.4380001,12.649 2.877,3.534 6.771,6.076 11.645,6.067 0.094,-0.002 0.144,-0.002 0.16,-0.002 l 0.377,0.004 c 0.941,0.174 1.912,0.269 2.906,0.267 l 21.645,0.001 c 8.866,-0.002 16.055,-7.189 16.055,-16.059 z m -10.82,-1.436 c 0.584,-1.551 2.068,-2.664 3.824,-2.664 v 0.002 c 2.262,0.004 4.092,1.834 4.096,4.099 v 9.467 c 0,0.256 -0.027,0.512 -0.074,0.771 v 0.002 c -0.361,1.887 -2.024,3.323 -4.021,3.32 -1.158,0.001 -2.199,-0.482 -2.943,-1.256 -0.326,-0.339 -0.588,-0.736 -0.783,-1.171 -0.034,-0.078 -0.067,-0.156 -0.098,-0.237 -0.021,-0.057 -0.053,-0.111 -0.07,-0.17 0,-0.001 0,-0.001 0,-0.002 -0.133,-0.404 -0.202,-0.822 -0.204,-1.258 l 0.002,-9.467 c -0.002,-0.259 0.028,-0.526 0.077,-0.795 0.029,-0.152 0.072,-0.307 0.125,-0.471 0.016,-0.058 0.048,-0.111 0.069,-0.17 z m -7.006,-7.531 h 0.01 c 2.262,0.004 4.094,1.836 4.098,4.098 v 18.664 c -0.004,1.414 -0.719,2.658 -1.809,3.396 -0.652,0.44 -1.441,0.699 -2.289,0.701 -1.383,0.002 -2.604,-0.688 -3.346,-1.741 -0.211,-0.302 -0.381,-0.636 -0.506,-0.99 -0.015,-0.037 -0.033,-0.072 -0.047,-0.111 -0.127,-0.396 -0.197,-0.816 -0.199,-1.252 l 0.002,-18.665 c 0,-0.441 0.07,-0.86 0.199,-1.265 0.016,-0.043 0.037,-0.084 0.053,-0.127 0.569,-1.572 2.067,-2.708 3.834,-2.708 z m -14.791,-0.294 c 0.004,-0.167 0.006,-0.298 0.008,-0.382 v -0.005 c 0.445,-1.782 2.056,-3.108 3.972,-3.106 2.261,0.003 4.091,1.832 4.097,4.091 0,0.063 -0.047,23.252 -0.035,23.61 0.004,0.178 0.01,0.324 0.018,0.448 0.008,0.053 0.01,0.085 0.012,0.118 -0.002,0.025 -0.008,0.05 -0.01,0.076 -0.008,0.168 -0.029,0.332 -0.057,0.496 -0.012,0.076 -0.016,0.156 -0.033,0.231 -0.041,0.187 -0.104,0.362 -0.172,0.538 -0.027,0.071 -0.045,0.146 -0.074,0.217 -0.074,0.166 -0.168,0.318 -0.264,0.473 -0.041,0.068 -0.074,0.144 -0.119,0.209 -0.098,0.141 -0.213,0.266 -0.326,0.392 -0.061,0.065 -0.111,0.14 -0.176,0.202 -0.115,0.111 -0.246,0.206 -0.373,0.305 -0.078,0.061 -0.148,0.129 -0.229,0.184 -0.131,0.086 -0.273,0.151 -0.414,0.223 -0.095,0.048 -0.181,0.104 -0.275,0.146 -0.15,0.063 -0.314,0.101 -0.474,0.146 -0.096,0.026 -0.187,0.065 -0.284,0.086 -0.244,0.049 -0.498,0.072 -0.756,0.076 -0.019,0 -0.035,0.005 -0.055,0.005 -0.152,-10e-4 -0.298,-0.029 -0.445,-0.047 -2.015,-0.227 -3.5,-1.896 -3.516,-4.049 -0.002,-0.027 -0.024,-24.347 -0.02,-24.683 z m -10.801,6.606 c 0.459,-1.76 2.057,-3.069 3.961,-3.065 1.747,-0.002 3.234,1.095 3.826,2.634 v 15.606 c -0.031,0.082 -0.064,0.163 -0.101,0.243 -0.039,0.087 -0.077,0.174 -0.122,0.258 -0.052,0.1 -0.113,0.191 -0.173,0.284 -0.054,0.082 -0.104,0.166 -0.164,0.243 -0.064,0.087 -0.137,0.166 -0.208,0.246 -0.066,0.074 -0.129,0.151 -0.2,0.222 -0.077,0.075 -0.161,0.142 -0.243,0.212 -0.076,0.063 -0.149,0.13 -0.23,0.188 -0.089,0.063 -0.185,0.117 -0.279,0.174 -0.083,0.052 -0.164,0.105 -0.251,0.15 -0.102,0.053 -0.211,0.094 -0.319,0.137 -0.086,0.035 -0.17,0.076 -0.26,0.104 -0.124,0.042 -0.254,0.067 -0.383,0.097 -0.079,0.018 -0.156,0.043 -0.237,0.057 -0.202,0.033 -0.41,0.048 -0.621,0.05 -0.011,0 -0.022,0.003 -0.033,0.003 -0.242,0 -0.479,-0.021 -0.708,-0.063 -0.07,-0.012 -0.135,-0.037 -0.204,-0.053 -0.157,-0.035 -0.313,-0.07 -0.463,-0.124 -0.086,-0.03 -0.167,-0.075 -0.251,-0.11 -0.123,-0.056 -0.249,-0.104 -0.365,-0.17 -0.09,-0.051 -0.17,-0.113 -0.256,-0.17 -0.101,-0.066 -0.206,-0.129 -0.3,-0.205 -0.084,-0.067 -0.159,-0.146 -0.238,-0.222 -0.083,-0.077 -0.17,-0.153 -0.248,-0.237 -0.075,-0.084 -0.138,-0.176 -0.206,-0.264 -0.068,-0.089 -0.14,-0.175 -0.201,-0.271 -0.061,-0.097 -0.11,-0.197 -0.163,-0.298 -0.052,-0.1 -0.108,-0.195 -0.154,-0.299 -0.044,-0.104 -0.077,-0.216 -0.113,-0.324 -0.032,-0.096 -0.066,-0.19 -0.091,-0.289 v -14.744 z m -2.898,16.36 v 8.983 l -1.169,-0.346 c -0.122,-0.121 -0.457,-0.546 -0.478,-1.954 -0.006,-1.31 0.366,-3.451 1.647,-6.683 z m 43.551,24.298 c -0.012,7.268 -5.893,13.147 -13.157,13.159 h -21.642 c -0.85,0 -1.68,-0.08 -2.487,-0.238 l -0.257,-0.024 -0.481,-0.006 c -0.033,-0.002 -0.063,-0.002 -0.091,-0.002 -0.055,0 -0.099,0.002 -0.125,0.002 -3.83,-0.01 -6.833,-1.896 -9.404,-5.008 -3.8350001,-4.649 -6.2920001,-11.972 -7.6920001,-18.095 -0.706,-3.061 -1.163,-5.826 -1.442,-7.814 -0.167,-1.194 -0.27,-2.104 -0.325,-2.639 5.288,-6.935 6.744,-12.68 7.1250001,-14.832 0.818,-0.303 1.479,-0.416 1.988,-0.416 1.077,0.028 1.58,0.394 2.128,1.113 1.015,1.351 1.278,4.156 1.249,5.397 0,0.15 -10e-4,0.273 -0.004,0.372 -2.645,5.472 -3.471,8.994 -3.479,11.415 -0.072,3.229 1.771,4.528 2.214,4.625 l 3.373,1.006 c 0.214,0.063 3.17,0.134 5.469,0.854 2.622,0.819 5.387,2.379 6.746,5.338 0.243,0.527 0.769,0.842 1.315,0.842 0.204,0 0.409,-0.043 0.605,-0.135 0.727,-0.336 1.043,-1.194 0.709,-1.922 -1.858,-4.013 -5.492,-5.951 -8.514,-6.891 -1.787,-0.555 -3.402,-0.785 -4.472,-0.881 v -6.371 c 0.096,0.065 0.202,0.115 0.301,0.177 0.125,0.078 0.251,0.153 0.382,0.223 0.202,0.108 0.413,0.201 0.626,0.289 0.131,0.056 0.259,0.112 0.393,0.158 0.245,0.083 0.499,0.146 0.755,0.201 0.113,0.025 0.223,0.061 0.339,0.08 0.379,0.063 0.766,0.102 1.163,0.104 v 0 c 0.026,0 0.053,-0.006 0.08,-0.006 0.352,-0.005 0.699,-0.031 1.037,-0.086 0.114,-0.019 0.222,-0.055 0.334,-0.078 0.245,-0.053 0.49,-0.104 0.725,-0.181 0.129,-0.042 0.249,-0.103 0.375,-0.151 0.208,-0.08 0.416,-0.16 0.613,-0.261 0.129,-0.065 0.249,-0.146 0.374,-0.22 0.146,-0.087 0.298,-0.161 0.437,-0.257 0.563,2.709 2.695,4.84 5.403,5.411 0.018,0.004 0.036,0.008 0.054,0.011 0.199,0.042 0.402,0.071 0.608,0.096 0.027,0.003 0.056,0.009 0.084,0.013 0.229,0.021 0.462,0.037 0.698,0.037 0.02,0 0.037,-0.005 0.057,-0.005 0.269,-0.003 0.531,-0.021 0.792,-0.054 0.091,-0.011 0.179,-0.025 0.269,-0.041 0.2,-0.032 0.398,-0.073 0.592,-0.122 0.082,-0.021 0.164,-0.038 0.244,-0.063 0.262,-0.074 0.519,-0.162 0.767,-0.268 0.032,-0.013 0.061,-0.029 0.092,-0.043 0.223,-0.098 0.436,-0.207 0.645,-0.326 0.068,-0.039 0.138,-0.08 0.203,-0.121 0.183,-0.111 0.355,-0.23 0.525,-0.357 0.051,-0.038 0.102,-0.074 0.151,-0.112 0.216,-0.171 0.42,-0.353 0.613,-0.546 0.023,-0.021 0.041,-0.045 0.063,-0.066 0.17,-0.175 0.33,-0.359 0.481,-0.553 0.041,-0.052 0.08,-0.104 0.119,-0.158 0.141,-0.188 0.271,-0.385 0.393,-0.588 0.017,-0.025 0.035,-0.049 0.052,-0.076 0.18,0.168 0.369,0.322 0.563,0.472 0.041,0.028 0.082,0.056 0.123,0.085 0.254,0.184 0.521,0.353 0.797,0.499 0.021,0.011 0.037,0.022 0.056,0.032 0.289,0.15 0.592,0.274 0.899,0.385 0.058,0.021 0.113,0.041 0.172,0.06 0.304,0.099 0.617,0.179 0.938,0.234 0.062,0.01 0.123,0.017 0.185,0.026 0.327,0.049 0.661,0.08 1.004,0.082 0.008,0 0.018,0.002 0.026,0.002 0.051,0 0.099,-0.007 0.146,-0.008 0.174,-0.004 0.348,-0.011 0.518,-0.025 0.092,-0.01 0.183,-0.024 0.272,-0.037 0.128,-0.018 0.257,-0.033 0.382,-0.059 0.096,-0.019 0.19,-0.041 0.287,-0.063 0.114,-0.027 0.231,-0.056 0.348,-0.089 0.096,-0.028 0.188,-0.06 0.281,-0.09 0.112,-0.037 0.223,-0.078 0.334,-0.121 0.09,-0.036 0.178,-0.073 0.266,-0.111 0.111,-0.05 0.22,-0.104 0.326,-0.157 0.082,-0.041 0.166,-0.083 0.246,-0.128 0.112,-0.063 0.223,-0.132 0.332,-0.201 0.067,-0.044 0.141,-0.085 0.207,-0.131 0.157,-0.107 0.313,-0.224 0.461,-0.345 0.047,-0.038 0.092,-0.079 0.139,-0.118 0.123,-0.107 0.246,-0.217 0.363,-0.332 0.059,-0.057 0.113,-0.12 0.17,-0.181 0.088,-0.093 0.176,-0.186 0.258,-0.282 0.06,-0.069 0.115,-0.143 0.172,-0.214 0.072,-0.095 0.146,-0.189 0.216,-0.287 0.053,-0.077 0.104,-0.156 0.155,-0.235 0.064,-0.101 0.127,-0.199 0.187,-0.303 0.047,-0.082 0.094,-0.165 0.137,-0.249 0.057,-0.106 0.107,-0.216 0.158,-0.327 0.039,-0.083 0.078,-0.167 0.113,-0.253 0.049,-0.122 0.094,-0.247 0.137,-0.372 0.024,-0.078 0.057,-0.154 0.08,-0.234 0.063,-0.2 0.115,-0.404 0.158,-0.612 0.141,0.097 0.295,0.172 0.44,0.259 0.123,0.072 0.242,0.151 0.369,0.217 0.194,0.1 0.401,0.178 0.608,0.26 0.127,0.05 0.248,0.108 0.38,0.152 0.229,0.075 0.473,0.125 0.715,0.178 0.114,0.023 0.227,0.063 0.344,0.08 0.363,0.059 0.734,0.092 1.115,0.092 0.377,0 0.744,-0.035 1.104,-0.094 0.031,-0.003 0.062,-0.006 0.091,-0.011 0.344,-0.06 0.676,-0.147 0.998,-0.254 0.043,-0.015 0.086,-0.024 0.127,-0.041 0.313,-0.108 0.612,-0.243 0.903,-0.394 0.045,-0.024 0.09,-0.047 0.133,-0.07 0.285,-0.156 0.558,-0.332 0.816,-0.524 0.018,-0.014 0.041,-0.024 0.059,-0.039 v 22.97 h -0.002 z"
     id="path30"
     inkscape:connector-curvature="0" /></svg>