<?xml version="1.0" encoding="UTF-8" standalone="no"?>
<svg
   xmlns:dc="http://purl.org/dc/elements/1.1/"
   xmlns:cc="http://creativecommons.org/ns#"
   xmlns:rdf="http://www.w3.org/1999/02/22-rdf-syntax-ns#"
   xmlns:svg="http://www.w3.org/2000/svg"
   xmlns="http://www.w3.org/2000/svg"
   xmlns:sodipodi="http://sodipodi.sourceforge.net/DTD/sodipodi-0.dtd"
   xmlns:inkscape="http://www.inkscape.org/namespaces/inkscape"
   version="1.1"
   x="0px"
   y="0px"
   viewBox="0 0 63.203251 90.409994"
   enable-background="new 0 0 84.863 90"
   xml:space="preserve"
   id="svg8"
   sodipodi:docname="noun_88666_cc.svg"
   width="63.203251"
   height="90.409996"
   inkscape:version="0.92.2 (5c3e80d, 2017-08-06)"><metadata
     id="metadata14"><rdf:RDF><cc:Work
         rdf:about=""><dc:format>image/svg+xml</dc:format><dc:type
           rdf:resource="http://purl.org/dc/dcmitype/StillImage" /><dc:title></dc:title></cc:Work></rdf:RDF></metadata><defs
     id="defs12" /><sodipodi:namedview
     pagecolor="#ffffff"
     bordercolor="#666666"
     borderopacity="1"
     objecttolerance="10"
     gridtolerance="10"
     guidetolerance="10"
     inkscape:pageopacity="0"
     inkscape:pageshadow="2"
     inkscape:window-width="640"
     inkscape:window-height="480"
     id="namedview10"
     showgrid="false"
     fit-margin-bottom="0.41"
     fit-margin-top="0"
     fit-margin-left="0"
     fit-margin-right="0"
     inkscape:pagecheckerboard="false"
     inkscape:zoom="2.0205908"
     inkscape:cx="39.36926"
     inkscape:cy="33.897318"
     inkscape:window-x="2452"
     inkscape:window-y="1158"
     inkscape:window-maximized="0"
     inkscape:current-layer="svg8" /><path
     d="m 57.184132,36.477996 v 0 c -0.33,-0.046 -0.657,-0.071 -0.983,-0.071 -1.08,10e-4 -2.113,0.259 -3.041,0.711 0,-0.017 0.004,-0.035 0.004,-0.052 0,-3.437 -2.527,-6.425 -6.021,-6.919 -0.326,-0.045 -0.651,-0.068 -0.979,-0.068 -1.117,0.001 -2.178,0.279 -3.129,0.758 l 2.982,-22.881998 c 0.045,-0.317 0.065,-0.646 0.065,-0.967 0,-3.437999 -2.527,-6.423998 -6.021,-6.918998 -0.325,-0.045 -0.651,-0.069 -0.977,-0.069 -3.438,0 -6.431,2.523999 -6.92,6.027998 l -5,33.248998 -8.703,-31.887998 c -0.837,-3.121999 -3.661,-5.183999 -6.755,-5.183999 -0.598,0 -1.208,0.077 -1.8149998,0.24 -3.12,0.842 -5.182,3.661999 -5.18,6.753999 0,0.599 0.078,1.209 0.241,1.816 l 5.8459998,24.241998 c -0.594,0.104 -1.2139998,0.276 -1.8659998,0.526 -0.258,0.098 -0.515,0.196 -0.782,0.318 -0.479,0.22 -0.801,0.677 -0.843,1.203 0,0 -0.004,0.052 -0.028,0.227 -0.17,1.212 -1.238,7.070998 -6.97499997,14.415999 v 0.002 c -0.106,0.136 -0.183,0.291 -0.234,0.452 -0.003,0.012 -0.01,0.022 -0.015,0.035 -0.045,0.157 -0.061,0.321 -0.051,0.489 0,0.013 -0.004999999,0.022 -0.003999999,0.034 0.007999999,0.063 0.7449999986,9.061003 3.7209999686,18.184005 1.494,4.565 3.537,9.172 6.4369998,12.742 2.873,3.554 6.759,6.115 11.629,6.115 h 0.022 c 0.08,-0.002 0.138,-0.002 0.178,-0.002 l 24.906,0.002 c 8.869,-0.002 16.058,-7.193 16.058,-16.061 l 0.186,-29.566006 c 0.045,-0.332 0.068,-0.659 0.066,-0.98 -0.002,-3.434998 -2.529,-6.418998 -6.019,-6.914998 z m -11.026,-3.5 h 0.006 c 0.188,0 0.381,0.013 0.576,0.042 2.045,0.283 3.525,2.045 3.525,4.048 0,0.195 -0.015,0.387 -0.039,0.579 l -0.416,2.96 -1.644,11.692999 -0.199,1.427001 -0.338,2.402 c -0.004,0.03 -0.016,0.057 -0.02,0.085 -0.324,1.998001 -2.058,3.441001 -4.029,3.438001 -0.193,0 -0.387,-0.01 -0.576,-0.036 -1.793,-0.251 -3.146,-1.632001 -3.457,-3.319001 -0.002,-0.013 -0.006,-0.025 -0.01,-0.039 -0.041,-0.232 -0.061,-0.465 -0.061,-0.706 0,-0.183 0.012,-0.368 0.039,-0.561 l 0.893,-6.349001 1.127,-8.020999 0.58,-4.117 c 0.055,-0.393 0.172,-0.76 0.326,-1.104 0.016,-0.038 0.026,-0.079 0.045,-0.115 0.67,-1.384 2.102,-2.307 3.672,-2.307 z m -30.826,25.299001 c -0.015,-0.016 -0.034,-0.035 -0.054,-0.061 -0.053,-0.068 -0.121,-0.18 -0.188,-0.347001 -0.011,-0.03 -0.022,-0.056 -0.035,-0.089 -0.001,-0.002 -0.002,-0.008 -0.003,-0.01 -0.1,-0.299 -0.187,-0.752 -0.197,-1.447 0,-0.081 0.006,-0.176 0.008,-0.262 0.003,-0.105 0.005,-0.209 0.013,-0.323 0.006,-0.095 0.02,-0.199 0.029,-0.3 0.013,-0.135 0.027,-0.269 0.046,-0.412 0.015,-0.108 0.035,-0.229 0.054,-0.344 0.025,-0.153 0.053,-0.311 0.085,-0.477 0.025,-0.127 0.053,-0.257 0.082,-0.391 0.016,-0.068 0.035,-0.145 0.051,-0.215 l 0.88,4.902001 z m 44.719,15.662003 c -0.01,7.267 -5.893,13.148 -13.158,13.163 h -24.886 c -0.074,0 -0.146,0.002 -0.198,0.002 -3.826,-0.013 -6.83,-1.912 -9.403,-5.047 C 8.5701322,77.369 6.1131322,69.988 4.7111322,63.816999 c -0.707,-3.088001 -1.164,-5.871003 -1.442,-7.881003 -0.168,-1.207 -0.27,-2.123 -0.326,-2.662 0.093,-0.123 0.176,-0.241 0.268,-0.363001 0.19,-0.253 0.378,-0.508 0.558,-0.758 0.127,-0.178 0.248,-0.351 0.37,-0.525 0.174,-0.251 0.349,-0.5 0.514,-0.747 0.111,-0.168 0.218,-0.334 0.326,-0.5 0.161,-0.247 0.322,-0.494 0.473,-0.737 0.098,-0.158 0.19,-0.313 0.284,-0.471 0.147,-0.245 0.296,-0.488 0.434,-0.729 0.085,-0.147 0.165,-0.291 0.246,-0.437 0.136,-0.244 0.271,-0.485 0.397,-0.721 0.072,-0.138 0.139,-0.267 0.208,-0.4 0.124,-0.237 0.248,-0.478 0.362,-0.709 0.063,-0.123 0.117,-0.243001 0.176,-0.364001 0.112,-0.234 0.225,-0.469 0.328,-0.694 0.05,-0.11 0.095,-0.217 0.145,-0.326 0.101,-0.23 0.203,-0.459 0.295,-0.68 0.041,-0.098 0.077,-0.19 0.116,-0.286 0.091,-0.225 0.183,-0.448 0.265,-0.662 0.032,-0.083 0.06,-0.163 0.09,-0.245 0.082,-0.218 0.163,-0.436 0.235,-0.643 0.023,-0.068 0.044,-0.131 0.068,-0.198 0.072,-0.211998 0.144,-0.421998 0.207,-0.621998 0.019,-0.058 0.033,-0.11 0.051,-0.167 0.063,-0.201 0.124,-0.4 0.178,-0.587 0.013,-0.044 0.022,-0.083 0.035,-0.126 0.054,-0.19 0.105,-0.378 0.15,-0.553 0.011,-0.044 0.021,-0.082 0.03,-0.125 0.042,-0.166 0.083,-0.33 0.117,-0.48 0.016,-0.067 0.027,-0.124 0.041,-0.187 0.025,-0.115 0.052,-0.233 0.073,-0.336 0.033,-0.164 0.061,-0.314 0.086,-0.449 0.524,-0.195 0.978,-0.305 1.374,-0.363 0.011,-10e-4 0.023,-0.002 0.034,-0.004 0.208,-0.029 0.406,-0.048 0.579,-0.048 0.339,0 0.615,0.048 0.854,0.124 0.372,0.123 0.671,0.317 0.942,0.594 0.114,0.116 0.224,0.243 0.331,0.391 0.292,0.389 0.516,0.904 0.695,1.461 0.442,1.382 0.577,3.054998 0.556,3.937998 0,0.148 -0.002,0.271 -0.004,0.368 v 0.004 c -0.077,0.159 -0.141,0.304 -0.214,0.458 -0.156,0.331 -0.313,0.664001 -0.458,0.979001 -0.3,0.664 -0.563,1.286 -0.809,1.889 -1.477,3.636 -1.988,6.203001 -1.993,8.092001 -0.007,0.336 0.017,0.64 0.047,0.935 0.222,2.186001 1.365,3.278002 1.933,3.595002 0.093,0.051 0.169,0.08 0.225,0.094 l 0.047,0.016 0.083,0.03 2.764,0.817 0.481,0.143 c 0.129,0.04 0.261,0.057 0.393,0.059 0.007,0 0.015,0.002 0.021,0.002 0.026,0 0.05,-0.01 0.076,-0.012 0.051,-0.003 0.102,-0.007 0.151,-0.015 0.444,0.01 2.527,0.1 4.832,0.819 2.619,0.819001 5.386,2.379002 6.744,5.336002 0.244,0.532 0.769,0.846 1.318,0.846 0.202,0 0.407,-0.043 0.604,-0.135 0.729,-0.336 1.044,-1.195 0.709,-1.922 -1.858,-4.012002 -5.494,-5.953002 -8.513,-6.891002 -1.92,-0.596001 -3.646,-0.816001 -4.706,-0.900001 l -0.884,-4.926001 -0.385,-2.146001 -0.9,-3.603 c 0.131,-0.306 0.254,-0.602 0.402,-0.927 0.229,-0.502 0.471,-1.022 0.735,-1.563001 l 0.003,-0.008 c 0.011,-0.021 0.022,-0.044 0.033,-0.067 0.084,-0.175 0.13,-0.349 0.144,-0.541 0.001,-0.021 0.012,-0.196 0.017,-0.492 0.002,-0.098 0.003,-0.21 0.003,-0.333 v 0 c -0.005,-0.28 -0.016,-0.632 -0.035,-1.013 -0.009,-0.174 -0.02,-0.347 -0.034,-0.537 -0.016,-0.201 -0.034,-0.41 -0.059,-0.626 -0.169,-1.512998 -0.586,-3.342998 -1.655,-4.898998 -0.193,-0.274 -0.424,-0.533 -0.673,-0.78 -0.555,-0.552 -1.239,-1.016 -2.064,-1.282 L 7.7591322,10.299998 c -0.104,-0.395 -0.151,-0.748 -0.151,-1.1 0.002,-1.806 1.209,-3.468 3.0389998,-3.955 0.354,-0.098 0.708,-0.141 1.059,-0.141 1.808,0 3.47,1.207 3.958,3.04 l 9.513,34.857996 0.651,2.387 c 0.041,0.15 0.109,0.283 0.19,0.407 0.314,0.479001 0.889,0.737001 1.473,0.629001 0.021,0.004 0.04,0.013 0.061,0.017 0.792,0.117 1.529,-0.428 1.649,-1.218001 l 0.129,-0.862 0.51,-3.394998 5.189,-34.523998 c 0.285,-2.062999 2.048,-3.542999 4.054,-3.542999 0.188,0 0.379,0.014 0.574,0.04 2.047,0.287 3.526,2.047 3.526,4.050999 -0.002,0.194 -0.014,0.388 -0.041,0.578 l -6.498,47.016998 c -0.045,0.322 -0.067,0.647 -0.065,0.968 -0.002,0.404 0.033,0.809 0.102,1.202 0.5,2.915001 2.835,5.296002 5.919,5.731002 0.329,0.045 0.659,0.067 0.979,0.067 2.965,0 5.59,-1.887 6.574,-4.646002 1.01,0.934001 2.295,1.589001 3.76,1.796001 0.317,0.048 0.633,0.067 0.938,0.067 h 0.043 c 2.019,0 3.863,-0.885 5.154,-2.310001 V 73.939 Z m 0.213,-29.967006 -0.244,1.736 -0.139,0.989001 -0.678,4.818 -0.258,1.836001 c -0.033,0.254 -0.096,0.502 -0.181,0.752 -0.559,1.642 -2.129,2.776 -3.868,2.772 -0.195,0 -0.388,-0.011 -0.578,-0.039 -1.74,-0.243 -3.058,-1.555 -3.416,-3.172 -0.01,-0.047 -0.027,-0.09 -0.035,-0.136 -0.004,-0.016 -0.01,-0.028 -0.012,-0.043 -0.045,-0.24 -0.063,-0.479 -0.063,-0.719001 0,-0.179 0.012,-0.362 0.039,-0.556 l 0.846,-6.01 0.474,-3.372001 c 0.035,-0.26 0.1,-0.521 0.188,-0.768 0.051,-0.151998 0.115,-0.300998 0.186,-0.447998 0.029,-0.058 0.064,-0.108 0.097,-0.163 0.701,-1.294 2.063,-2.146 3.567,-2.146 h 0.013 c 0.188,0 0.381,0.012 0.576,0.04 h 0.002 c 2.043,0.286 3.524,2.046 3.524,4.047998 -0.001,0.196 -0.015,0.389 -0.04,0.581 z"
     id="path2"
     inkscape:connector-curvature="0" /></svg>